<svg id="Layer_1" data-name="Layer 1" xmlns="http://www.w3.org/2000/svg" viewBox="0 0 126 31"><defs><style>.cls-1{fill:#231f20;fill-rule:evenodd;}</style></defs><path class="cls-1" d="M118.92,23.43a1.4,1.4,0,1,0,1.4-1.39,1.39,1.39,0,0,0-1.4,1.39Zm.25,0a1.15,1.15,0,1,1,1.15,1.19,1.15,1.15,0,0,1-1.15-1.19Zm.61.82V22.62h.62c.39,0,.57.15.57.46a.42.42,0,0,1-.42.45l.46.72h-.27l-.44-.71H120v.71Zm.25-1.43h.33c.17,0,.36,0,.36.25s-.21.27-.43.27H120v-.52Z"/><path class="cls-1" d="M33.71,23a7.66,7.66,0,0,1-7.54-7.78,7.54,7.54,0,1,1,15.08,0A7.66,7.66,0,0,1,33.71,23Zm0-18.34c-6.22,0-11.27,4.74-11.27,10.59s5,10.58,11.27,10.58S45,21.08,45,15.24,39.94,4.65,33.71,4.65Z"/><path class="cls-1" d="M103.12,21.88H93.79V16.12H102a1.49,1.49,0,0,0,0-3H93.79V8.43h9.33a1.49,1.49,0,1,0,0-3H91.5v0A1.48,1.48,0,0,0,90,7V23.37a1.48,1.48,0,0,0,1.48,1.48h11.62a1.49,1.49,0,1,0,0-3Z"/><path class="cls-1" d="M66.75,11.91a.77.77,0,0,0,.69-1.09A11.33,11.33,0,0,0,57.2,4.65C51,4.65,45.92,9.39,45.92,15.24S51,25.82,57.2,25.82a11.25,11.25,0,0,0,10.6-7h0a.68.68,0,0,0,.08-.33.77.77,0,0,0-.77-.76H64.73a.72.72,0,0,0-.53.38,1.17,1.17,0,0,0,0,.11,7.54,7.54,0,0,1-7,4.77,7.66,7.66,0,0,1-7.54-7.78A7.65,7.65,0,0,1,57.2,7.44a7.49,7.49,0,0,1,6.61,4.05.75.75,0,0,0,.56.42Z"/><path class="cls-1" d="M6,17.88a.76.76,0,0,0-.74-.58H3.5a.77.77,0,0,0-.77.76v.35c0,4.06,3.67,7.41,9.34,7.41,5.15,0,9.38-2.51,9.38-9.6v-10a.76.76,0,0,0-.76-.76H18.45a.76.76,0,0,0-.76.76v10h0c0,4.63-2.15,6.75-5.62,6.75-2.93,0-6-2.07-6-5Z"/><path class="cls-1" d="M123.5,5.48h-2.43a1.64,1.64,0,0,0-1.22.76l-5.35,8-4.74-7.95a1.61,1.61,0,0,0-1.22-.76H106.4c-.82,0-1.09.66-.6,1.48l7,11.1v5.31a1.49,1.49,0,0,0,1.49,1.48h.8a1.48,1.48,0,0,0,1.48-1.48V17.93L124.1,7a1.51,1.51,0,0,0,.25-.77C124.34,5.76,124,5.48,123.5,5.48Z"/><path class="cls-1" d="M88.63,23.71,80.78,12.18l5.38-5.53c.61-.67.32-1.17-.14-1.17H83.33c-.57,0-.8.2-1.38.78l-8.43,8.4V6.24a.76.76,0,0,0-.76-.76H71.4s-1.64,0-1.64,2.61v16a.76.76,0,0,0,.76.76h.94a2.06,2.06,0,0,0,2.06-2.06V19.65l4.59-4.72,6.3,9.12c.24.35.6.8,1,.8h2.23C88.71,24.85,89.09,24.39,88.63,23.71Z"/></svg>